<svg width="93" height="20" viewBox="0 0 93 20" fill="none" xmlns="http://www.w3.org/2000/svg">
<path d="M0.321023 19V5.90909H4.48864V19H0.321023ZM2.40909 4.38352C1.82386 4.38352 1.32102 4.19034 0.900568 3.80398C0.480114 3.41193 0.269886 2.94034 0.269886 2.3892C0.269886 1.84375 0.480114 1.37784 0.900568 0.991477C1.32102 0.599431 1.82386 0.403408 2.40909 0.403408C3 0.403408 3.50284 0.599431 3.91761 0.991477C4.33807 1.37784 4.5483 1.84375 4.5483 2.3892C4.5483 2.94034 4.33807 3.41193 3.91761 3.80398C3.50284 4.19034 3 4.38352 2.40909 4.38352ZM12.1186 19H7.25213L10.1499 1.54545H15.3402C16.9766 1.54545 18.3203 1.89489 19.3714 2.59375C20.4283 3.28693 21.1612 4.28409 21.5703 5.58523C21.9851 6.88636 22.0391 8.44602 21.7322 10.2642C21.4197 12.0937 20.8345 13.6619 19.9766 14.9688C19.1186 16.2699 18.0249 17.267 16.6953 17.9602C15.3714 18.6534 13.8459 19 12.1186 19ZM8.48793 18.0114H12.2038C13.7436 18.0114 15.1016 17.6932 16.2777 17.0568C17.4538 16.4205 18.4169 15.517 19.1669 14.3466C19.9226 13.1705 20.4311 11.7784 20.6925 10.1705C20.9595 8.55682 20.9311 7.18182 20.6072 6.04545C20.2834 4.90909 19.6669 4.03977 18.7578 3.4375C17.8544 2.83523 16.6584 2.53409 15.1697 2.53409H11.0533L8.48793 18.0114ZM28.9574 19.2727C27.8665 19.2727 26.9432 18.9801 26.1875 18.3949C25.4375 17.804 24.9034 16.9915 24.5852 15.9574C24.267 14.9233 24.2188 13.7415 24.4403 12.4119C24.6563 11.1165 25.0824 9.96591 25.7188 8.96023C26.3608 7.94886 27.1449 7.15625 28.071 6.58239C28.9972 6.00284 29.9915 5.71307 31.054 5.71307C32.1506 5.71307 33.0739 6.01136 33.8239 6.60795C34.5795 7.19886 35.1165 8.0142 35.4347 9.05398C35.7528 10.0881 35.8068 11.267 35.5966 12.5909C35.3807 13.8807 34.9489 15.0312 34.3011 16.0426C33.6591 17.0483 32.875 17.8381 31.9489 18.4119C31.0227 18.9858 30.0256 19.2727 28.9574 19.2727ZM28.9744 18.3097C29.9063 18.3097 30.7642 18.0483 31.5483 17.5256C32.3324 17.0028 32.9886 16.2955 33.517 15.4034C34.0511 14.5114 34.4063 13.5142 34.5824 12.4119C34.7585 11.3437 34.733 10.3778 34.5057 9.5142C34.2784 8.64489 33.8722 7.95739 33.2869 7.4517C32.7017 6.94034 31.9602 6.68466 31.0625 6.68466C30.1364 6.68466 29.2784 6.94886 28.4886 7.47727C27.7045 8.00568 27.0455 8.71591 26.5114 9.60795C25.9773 10.5 25.6222 11.4943 25.446 12.5909C25.2642 13.6534 25.2869 14.6193 25.5142 15.4886C25.7472 16.3523 26.1563 17.0398 26.7415 17.5511C27.3324 18.0568 28.0767 18.3097 28.9744 18.3097ZM42.5447 19L37.4652 1.54545H42.1271L44.7607 12.983H44.9055L47.9141 1.54545H51.7152L54.7237 13.0085H54.8686L57.5107 1.54545H62.1641L57.093 19H53.0277L49.8828 8.41477H49.7464L46.6016 19H42.5447ZM63.907 19V1.54545H76.0774V4.97159H68.1257V8.55114H75.4553V11.9858H68.1257V15.5739H76.0774V19H63.907ZM78.7195 19V1.54545H85.9979C87.3047 1.54545 88.3984 1.73011 89.2791 2.09943C90.1655 2.46875 90.8303 2.98579 91.2734 3.65057C91.7223 4.31534 91.9467 5.08523 91.9467 5.96023C91.9467 6.625 91.8075 7.21875 91.5291 7.74148C91.2507 8.25852 90.8672 8.6875 90.3786 9.02841C89.8899 9.36932 89.3246 9.60795 88.6825 9.74432V9.91477C89.3871 9.94886 90.0376 10.1392 90.6342 10.4858C91.2365 10.8324 91.7195 11.3153 92.0831 11.9347C92.4467 12.5483 92.6286 13.2756 92.6286 14.1165C92.6286 15.054 92.3899 15.892 91.9126 16.6307C91.4354 17.3636 90.745 17.9432 89.8416 18.3693C88.9382 18.7898 87.8416 19 86.5518 19H78.7195ZM82.9382 15.5994H85.5462C86.4609 15.5994 87.1342 15.4261 87.5661 15.0795C88.0036 14.733 88.2223 14.25 88.2223 13.6307C88.2223 13.1818 88.1172 12.7955 87.907 12.4716C87.6967 12.142 87.3984 11.8892 87.0121 11.7131C86.6257 11.5312 86.1626 11.4403 85.6229 11.4403H82.9382V15.5994ZM82.9382 8.72159H85.2734C85.7337 8.72159 86.1428 8.64489 86.5007 8.49148C86.8587 8.33807 87.1371 8.11648 87.3359 7.8267C87.5405 7.53693 87.6428 7.1875 87.6428 6.77841C87.6428 6.19318 87.4354 5.73295 87.0206 5.39773C86.6058 5.0625 86.0462 4.89489 85.3416 4.89489H82.9382V8.72159Z" fill="black"/>
</svg>
